<svg xmlns="http://www.w3.org/2000/svg" xmlns:xlink="http://www.w3.org/1999/xlink" fill="none" version="1.1" width="16" height="16" viewBox="0 0 16 16"><defs><clipPath id="master_svg0_16_405"><rect x="0" y="0" width="16" height="16" rx="0"/></clipPath></defs><g clip-path="url(#master_svg0_16_405)"><g><path d="M13.32330390625,0.33789662421875C13.37820390625,0.34586262421875,13.42470390625,0.35611052421875,13.46290390625,0.36743582421875C13.65290390625,0.42379632421875,13.80800390625,0.56178432421875,13.88610390625,0.74395832421875C14.21920390625,1.52111732421875,14.29860390625,2.37825732421875,14.12150390625,3.19527732421875C14.12150390625,3.19527732421875,14.08000390625,3.36538732421875,14.08000390625,3.36538732421875C14.08000390625,3.36538732421875,14.18650390625,3.50595732421875,14.18650390625,3.50595732421875C14.67480390625,4.18158732421875,14.95750390625,4.98757732421875,14.99560390625,5.82591732421875C14.99560390625,5.82591732421875,15.00000390625,6.01991732421875,15.00000390625,6.01991732421875C15.00000390625,9.03653732421875,13.68870390625,10.55450732421875,11.32540390625,11.13850732421875C11.32540390625,11.13850732421875,11.13600390625,11.18210732421875,11.13600390625,11.18210732421875C11.13600390625,11.18210732421875,11.16790390625,11.26320732421875,11.16790390625,11.26320732421875C11.28800390625,11.59670732421875,11.34600390625,11.94870732421875,11.34110390625,12.26920732421875C11.34110390625,12.26920732421875,11.33330390625,12.42660732421875,11.33330390625,12.42660732421875C11.33330390625,12.42660732421875,11.33330390625,15.00660732421875,11.33330390625,15.00660732421875C11.33330390625,15.37480732421875,11.03480390625,15.67330732421875,10.66660390625,15.67330732421875C10.32477390625,15.67330732421875,10.04297390625,15.41590732421875,10.00450390625,15.08430732421875C10.00450390625,15.08430732421875,9.99997390625,15.00660732421875,9.99997390625,15.00660732421875C9.99997390625,15.00660732421875,10.00203390625,12.37430732421875,10.00203390625,12.37430732421875C10.01963390625,12.15070732421875,9.98943390625,11.92600732421875,9.91343390625,11.71500732421875C9.85263390625,11.54620732421875,9.76370390625,11.38930732421875,9.65057390625,11.25090732421875C9.65057390625,11.25090732421875,9.56130390625,11.15060732421875,9.56130390625,11.15060732421875C9.17563390625,10.75280732421875,9.41543390625,10.08540732421875,9.96617390625,10.02407732421875C12.47870390625,9.74400732421875,13.66660390625,8.74507732421875,13.66660390625,6.02005732421875C13.66650390625,5.26033732421875,13.37430390625,4.52978732421875,12.85050390625,3.97959732421875C12.67460390625,3.79481732421875,12.61950390625,3.52582732421875,12.70880390625,3.28679732421875C12.89640390625,2.78398732421875,12.92950390625,2.2403973242187503,12.80970390625,1.72435732421875C12.80970390625,1.72435732421875,12.80060390625,1.69138732421875,12.80060390625,1.69138732421875C12.80060390625,1.69138732421875,12.73780390625,1.70701732421875,12.73780390625,1.70701732421875C12.73780390625,1.70701732421875,12.64780390625,1.73145732421875,12.64780390625,1.73145732421875C12.21820390625,1.85511732421875,11.68280390625,2.11469732421875,11.03780390625,2.54700732421875C10.87760390625,2.65446732421875,10.67860390625,2.68718732421875,10.49230390625,2.63669732421875C9.07850390625,2.25353732421875,7.58817390625,2.25353732421875,6.17438390625,2.63669732421875C5.98811390625,2.68718732421875,5.78910390625,2.65446732421875,5.62879390625,2.54700732421875C5.04249390625,2.15399732421875,4.546743906250001,1.90374732421875,4.13870390625,1.76857732421875C4.13870390625,1.76857732421875,3.97280390625,1.71855732421875,3.97280390625,1.71855732421875C3.97280390625,1.71855732421875,3.86533390625,1.69138732421875,3.86533390625,1.69138732421875C3.86533390625,1.69138732421875,3.85698390625,1.72433732421875,3.85698390625,1.72433732421875C3.74913390625,2.18876732421875,3.76516390625,2.67551732421875,3.90625390625,3.13480732421875C3.90625390625,3.13480732421875,3.95791390625,3.28681732421875,3.95791390625,3.28681732421875C4.04712390625,3.52584732421875,3.99208390625,3.79481732421875,3.81616390625,3.97959732421875C3.28844390625,4.53389732421875,2.99590390625,5.27105732421875,2.99994390625,6.03991732421875C2.99994390625,8.73940732421875,4.17900390625,9.73080732421875,6.70883390625,10.04500732421875C7.22863390625,10.10960732421875,7.46523390625,10.71330732421875,7.15617390625,11.11210732421875C7.15617390625,11.11210732421875,7.10568390625,11.17030732421875,7.10568390625,11.17030732421875C6.95149390625,11.32950732421875,6.83252390625,11.51970732421875,6.75658390625,11.72810732421875C6.69583390625,11.89480732421875,6.66372390625,12.07030732421875,6.66211390625,12.27100732421875C6.66211390625,12.27100732421875,6.66666390625,12.42660732421875,6.66666390625,12.42660732421875C6.66666390625,12.42660732421875,6.66666390625,15.00660732421875,6.66666390625,15.00660732421875C6.66666390625,15.37480732421875,6.36818390625,15.67330732421875,5.99999390625,15.67330732421875C5.65810390625,15.67330732421875,5.37632390625,15.41590732421875,5.33781390625,15.08430732421875C5.33781390625,15.08430732421875,5.33333390625,15.00660732421875,5.33333390625,15.00660732421875C5.33333390625,15.00660732421875,5.33336390625,13.84770732421875,5.33336390625,13.84770732421875C3.91448390625,14.07910732421875,2.99307390625,13.64390732421875,2.1453739062499997,12.64760732421875C2.1453739062499997,12.64760732421875,1.96463390625,12.42590732421875,1.96463390625,12.42590732421875C1.96463390625,12.42590732421875,1.74026390625,12.14320732421875,1.74026390625,12.14320732421875C1.5056639062500001,11.85330732421875,1.35716390625,11.71950732421875,1.2178439062500002,11.66770732421875C1.2178439062500002,11.66770732421875,1.17163790625,11.65330732421875,1.17163790625,11.65330732421875C0.81444090625,11.56410732421875,0.59726720625,11.20210732421875,0.68656660625,10.84490732421875C0.77586590625,10.48770732421875,1.1378219062500001,10.27053732421875,1.49501690625,10.35990732421875C1.96251390625,10.47670732421875,2.28969390625,10.72790732421875,2.67119390625,11.17700732421875C2.67119390625,11.17700732421875,2.80767390625,11.34300732421875,2.80767390625,11.34300732421875C2.80767390625,11.34300732421875,3.07705390625,11.68240732421875,3.07705390625,11.68240732421875C3.70981390625,12.46590732421875,4.23540390625,12.73550732421875,5.33496390625,12.49290732421875C5.33496390625,12.49290732421875,5.33497390625,12.47330732421875,5.33497390625,12.47330732421875C5.31037390625,12.12360732421875,5.34913390625,11.77290732421875,5.44887390625,11.43780732421875C5.44887390625,11.43780732421875,5.50381390625,11.27170732421875,5.50381390625,11.27170732421875C5.50381390625,11.27170732421875,5.53466390625,11.19270732421875,5.53466390625,11.19270732421875C5.53466390625,11.19270732421875,5.49744390625,11.18460732421875,5.49744390625,11.18460732421875C3.08140390625,10.61890732421875,1.72759390625,9.16900732421875,1.66863390625,6.24507732421875C1.66863390625,6.24507732421875,1.66661390625,6.04341732421875,1.66661390625,6.04341732421875C1.66181090625,5.12925732421875,1.94871390625,4.24281732421875,2.47763390625,3.50939732421875C2.47763390625,3.50939732421875,2.5859939062499997,3.36471732421875,2.5859939062499997,3.36471732421875C2.5859939062499997,3.36471732421875,2.5451339062500002,3.19524732421875,2.5451339062500002,3.19524732421875C2.38167390625,2.44105732421875,2.43678390625,1.65271732421875,2.70821390625,0.92465432421875C2.70821390625,0.92465432421875,2.78057390625,0.74394932421875,2.78057390625,0.74394932421875C2.85865390625,0.56178032421875,3.01373390625,0.42379632421875,3.20375390625,0.36743582421875C3.24193390625,0.35611052421875,3.28849390625,0.34586262421875,3.34337390625,0.33789662421875C3.95117390625,0.24967132421875,4.83369390625,0.47979632421874996,6.00960390625,1.2064203242187501C6.00960390625,1.2064203242187501,6.11866390625,1.27472032421875,6.11866390625,1.27472032421875C6.11866390625,1.27472032421875,6.40860390625,1.2111873242187499,6.40860390625,1.2111873242187499C7.67850390625,0.95092332421875,8.98817390625,0.95092332421875,10.25803390625,1.2111873242187499C10.25803390625,1.2111873242187499,10.54730390625,1.27472032421875,10.54730390625,1.27472032421875C10.54730390625,1.27472032421875,10.65703390625,1.2064203242187501,10.65703390625,1.2064203242187501C11.83300390625,0.47979632421874996,12.71550390625,0.24967132421875,13.32330390625,0.33789662421875C13.32330390625,0.33789662421875,13.32330390625,0.33789662421875,13.32330390625,0.33789662421875Z" fill="#000000" fill-opacity="1"/></g></g></svg>