<svg xmlns="http://www.w3.org/2000/svg" xmlns:xlink="http://www.w3.org/1999/xlink" fill="none" version="1.1" width="16" height="16" viewBox="0 0 16 16"><defs><clipPath id="master_svg0_16_409"><rect x="0" y="0" width="16" height="16" rx="0"/></clipPath></defs><g clip-path="url(#master_svg0_16_409)"><g><path d="M2.0710770117187502,3.70263C2.0710770117187502,3.70263,8.00001701171875,7.85289,8.00001701171875,7.85289C8.00001701171875,7.85289,13.92898701171875,3.70263,13.92898701171875,3.70263C13.81868701171875,3.48461,13.59198701171875,3.33333,13.33338701171875,3.33333C13.33338701171875,3.33333,2.66668701171875,3.33333,2.66668701171875,3.33333C2.4080470117187502,3.33333,2.18132701171875,3.48461,2.0710770117187502,3.70263C2.0710770117187502,3.70263,2.0710770117187502,3.70263,2.0710770117187502,3.70263ZM13.99998701171875,5.2804400000000005C13.99998701171875,5.2804400000000005,8.38235701171875,9.2128,8.38235701171875,9.2128C8.15275701171875,9.373529999999999,7.84728701171875,9.373529999999999,7.61768701171875,9.2128C7.61768701171875,9.2128,2.00001701171875,5.2804400000000005,2.00001701171875,5.2804400000000005C2.00001701171875,5.2804400000000005,2.00001701171875,12,2.00001701171875,12C2.00001701171875,12.3651,2.30153701171875,12.6667,2.66668701171875,12.6667C2.66668701171875,12.6667,13.33338701171875,12.6667,13.33338701171875,12.6667C13.69848701171875,12.6667,13.99998701171875,12.3651,13.99998701171875,12C13.99998701171875,12,13.99998701171875,5.2804400000000005,13.99998701171875,5.2804400000000005C13.99998701171875,5.2804400000000005,13.99998701171875,5.2804400000000005,13.99998701171875,5.2804400000000005ZM0.66668701171875,4C0.66668701171875,2.89848,1.56516701171875,2,2.66668701171875,2C2.66668701171875,2,13.33338701171875,2,13.33338701171875,2C14.43488701171875,2,15.33338701171875,2.89848,15.33338701171875,4C15.33338701171875,4,15.33338701171875,12,15.33338701171875,12C15.33338701171875,13.1015,14.43488701171875,14,13.33338701171875,14C13.33338701171875,14,2.66668701171875,14,2.66668701171875,14C1.56516701171875,14,0.66668701171875,13.1015,0.66668701171875,12C0.66668701171875,12,0.66668701171875,4,0.66668701171875,4C0.66668701171875,4,0.66668701171875,4,0.66668701171875,4Z" fill-rule="evenodd" fill="#000000" fill-opacity="1"/></g></g></svg>